<!--version="1.0" encoding="utf-8"-->
<!-- Uploaded to: SVG Repo, www.svgrepo.com, Generator: SVG Repo Mixer Tools -->
<svg viewBox="0 0 64 64" xmlns="http://www.w3.org/2000/svg"
  aria-hidden="true" role="img" class="iconify iconify--emojione-monotone"
  preserveAspectRatio="xMidYMid meet">
  <path
    d="M19.546 12.38c1.19-2.317 2.626-3.925 4.205-5.038-1.437-.933-3.955-1.26-5.176-1.26 0 0-1.45 4.622.972 6.298"
    fill="#000000" />
  <path
    d="M52.702 12.38c2.42-1.678.974-6.298.974-6.298-1.224 0-3.74.327-5.18 1.26 1.58 1.112 3.017 2.72 4.206 5.037"
    fill="#000000" />
  <path d="M44.185 11.01c-1.765-6.478-14.38-6.603-16.122.043 3.496-2.92 12.628-2.92 16.122-.042"
    fill="#000000" />
  <path d="M30.604 13.605c2.875-2.4 8.166-2.394 11.04-.03-1.19-4.365-9.864-4.458-11.04.03"
    fill="#000000" />
  <path
    d="m60 29.812-.033-1.314c-.162-6.495-3.774-10.028-4.56-10.72-.254-1.05-.53-2.063-.86-2.987 4.293-3.62 1.754-11.91 1.64-12.273L56.023 2h-.557c-2.758 0-7.945.778-10.63 2.847-2.462-.68-5.028-.74-7.456-.74l-1.256.003-1.256-.002c-2.43 0-4.996.06-7.457.74C24.728 2.777 19.54 2 16.784 2h-.558l-.162.516c-.114.362-2.656 8.652 1.638 12.275-.328.924-.604 1.936-.86 2.986a10.9 10.9 0 0 0-1.19 1.263 15.264 15.264 0 0 0-1.675-5.61c-.725-1.4-2.123-2.236-3.74-2.236-1.505 0-2.926.742-3.62 1.89-.674 1.12-.618 2.47.158 3.8 2.56 4.388 1.463 7.052-.197 11.086-.61 1.483-1.302 3.165-1.892 5.137-1.602 5.36-.093 8.863 1.455 10.855 2.14 2.757 5.87 4.484 9.767 4.532a27.57 27.57 0 0 0 1.507 3.963c.874 1.878 3.057 3.235 5.833 4.184.4 1.562.894 2.78 1.503 3.41 1.39 1.437 4.13 1.95 6.23 1.95 2.114 0 3.95-.47 5.145-1.284 1.193.815 3.03 1.282 5.143 1.284 2.104 0 4.844-.513 6.232-1.95.61-.632 1.102-1.85 1.502-3.41 2.777-.947 4.96-2.306 5.836-4.184 4-8.59 1.98-13.563.606-15.617l1.714 1.943.47-1.105c1.54-3.64 1.243-6.846.784-8.775l1.588.91M17.357 3.47c2.477.1 7.216.817 9.372 2.728l.32.284.415-.128c2.377-.728 4.96-.788 7.404-.788l1.255.002 1.256-.002c2.443 0 5.026.06 7.404.788l.415.128.32-.284c2.155-1.91 6.894-2.628 9.37-2.728.478 1.858 1.766 8.1-1.672 10.48l-.466.324.198.52c.424 1.12.786 2.375 1.098 3.732.086 1.03.366 5.166-.26 8.895-1.55 5.287-4.648 6.122-7.28 5.69-.53-1.82-1.565-4.005-3.063-6.633 3.493 2.112 9.333.05 8.806-5.302-.28-2.86-.323-3.106-5.946-2.527-5.625.58-5.62.83-5.336 3.69.093.927.355 1.718.74 2.38.195 2.08-.24 4.418-.805 5.875-2.476-.576-7.123-.553-9.56-.003-.435-1.373-.8-4.165-.73-6.053a5.912 5.912 0 0 0 .646-2.2c.28-2.858.288-3.11-5.337-3.69-5.623-.578-5.666-.332-5.947 2.528-.53 5.384 5.383 7.438 8.87 5.262-1.356 2.48-2.3 4.668-2.786 6.618-2.697.55-5.988-.136-7.602-5.638-.623-3.723-.346-7.852-.26-8.89.312-1.356.673-2.61 1.1-3.732l.196-.52-.466-.324c-3.437-2.38-2.148-8.62-1.67-10.48M41.42 45.162l-.723-1.327s-.534 1.84-2.116 2.756l-.016-1.754s-.566 1.385-2.084 2.357c-.084-1.214-.203-2.216-.36-2.8-.157.587-.276 1.594-.36 2.813-1.533-.974-2.104-2.37-2.104-2.37l-.016 1.754c-2.894-2.27-2.46-4.937-2.46-4.937-2.208-.047-7.314-3.88-1.513-14.356-.278 1.814.55 3.93.55 3.93l.018.004c.202.695 2.135 2.08 5.218 2.258.063 1.506.307 3.287.507 4.327-1.422.846-3.014 2.14-4.78 3.84 4.335-.94 7.935-5.247 11.07-2.928.674 1.08 1.407 3.294-.83 6.435m-14.3-22.276c1.02 0 1.844-.84 1.844-1.873a1.59 1.59 0 0 0-.248-.866c1.054.26 1.014.69.885 1.734-.552 4.47-8.49 3.812-7.937-.656.198-1.614.23-1.756 4.156-1.432-.336.284-.545.7-.545 1.22 0 1.035.825 1.874 1.843 1.874M42.43 38.742c-.102 0-.16-.004-.16-.004-1.152-2.095-2.853-2.512-5.06-1.572a33.994 33.994 0 0 1-.407-3.68c3.068-.185 4.984-1.563 5.188-2.254l.02-.006s.86-1.65.808-3.93c4.674 8.373 2.95 11.446-.39 11.446m5.688-15.856c1.018 0 1.843-.84 1.843-1.873 0-.606-.287-1.065-.725-1.347 1.13.076 1.194.5 1.325 1.558.553 4.468-7.385 5.125-7.938.657-.198-1.615-.203-1.757 3.754-2.086l.496-.04c-.366.285-.6.714-.6 1.26 0 1.033.826 1.872 1.844 1.872M19.464 33.682c1 1.068 2.24 1.61 3.688 1.61.81 0 1.673-.18 2.592-.517-.183 1.597-.012 3.03.557 4.335a6.94 6.94 0 0 0 2.045 2.677c-2.226-.865-3.5-1.798-3.524-1.815l-1.06-.8-.3 2.54c-4.608-2.556-5.154-6.72-5.176-6.904l-.188-1.68-2.51 2.845c-1.478-4.647.23-8.324.248-8.363l.89-1.867c.296 2.984 1.04 6.122 2.74 7.94m-5.653-4.766.025-.015c-.458 1.93-.757 5.138.786 8.775l.47 1.105 1.743-1.977c-.72 1.086-1.718 3.146-1.748 6.266-1.864-.412-3.293-1.4-4.087-2.85-1.016-1.853-.86-4.222.43-6.5.957-1.69 1.748-3.284 2.383-4.803m2.897-3.354-2.828 1.62c.36-3.226 1.667-5.536 2.704-6.91a41.057 41.057 0 0 0 .123 5.29m-8.357-11.5c.334-.554 1.092-.927 1.886-.927.5 0 1.42.15 1.944 1.163.372.716.712 1.493.982 2.348-.697.516-1.746 1.412-2.94 2.87 0 0 1.424 1.114 3.478 1.84-.023.358-.075.74-.13 1.122a15.4 15.4 0 0 0-.69 1.976c-.948.342-2.228.925-3.523 1.926 1.185-3.24 1.628-6.233-.834-10.454-.293-.498-.558-1.227-.173-1.865m.09 14.625c.254-.616.497-1.21.722-1.797a14.6 14.6 0 0 0 2.518 1.89 41.917 41.917 0 0 1-1.488 3.036c-.713.05-1.77.194-3.167.55.462-1.354.962-2.574 1.416-3.678m4.32 17.378c-2.033-.605-3.833-1.75-5.016-3.273-1.826-2.35-2.217-5.514-1.13-9.147.084-.283.175-.55.264-.822.076.662.407 1.913 1.808 2.3a8.627 8.627 0 0 0-.337 2.952 9.343 9.343 0 0 1-2.166 1.12s1.144 1.57 2.722 1.24c.098.235.195.47.32.696.21.384.465.734.74 1.07a6.984 6.984 0 0 1-.87 1.586s1.303.324 2.19-.327a8.326 8.326 0 0 0 1.578.923 9.48 9.48 0 0 1-.104 1.683m6.484 5.59a26.13 26.13 0 0 1-.51-1.162c.652.173 1.244.19 1.244.19a19.297 19.297 0 0 1-1.913-2.005 23.592 23.592 0 0 1-.417-1.407l-.2-.776s-2.734.235-4.466-.376c.39-.13 1.153-.483 1.5-1.207.498.12 1.01.22 1.545.268l.862.08c1.833 2.283 5.075 3.713 5.075 3.713-2.75-3.846-3.9-7.197-4.375-9.15.16-.494.338-.908.517-1.257.728 1.24 1.85 2.606 3.57 3.775.146 3.803.45 8.414 1.09 12.05-1.79-.758-3.037-1.687-3.523-2.733m16.11 7.136c-.663.767-2.38 1.264-4.374 1.264-2.078 0-3.994-.536-4.764-1.335-.297-.306-.564-.875-.806-1.644 2.15-2.725 6.722-4.645 6.722-4.645-3.613-2.41-6.37-1.477-7.723-.68a85.736 85.736 0 0 1-.29-2.763c3.06-3.04 6.633-2.66 6.633-2.66-2.866-3.183-5.576-2.673-6.965-2.066-.014-.256-.025-.51-.037-.766l.015.007.947.428.25-2.12c1.012.59 2.715 1.43 4.984 2.052.353 1.164 1.114 2.575 2.75 3.857l2.426 1.904.01-1.07c.082.05.167.097.254.144l.29.155c-.12 3.158-.045 7.046.224 9.306l-.546.633m12.49-7.07c-1.354-.785-4.113-1.7-7.727.71 0 0 4.57 1.926 6.72 4.65-.24.767-.508 1.333-.804 1.64-.77.798-2.686 1.334-4.765 1.334-1.995 0-3.71-.497-4.374-1.264l-.545-.63c.27-2.264.343-6.158.222-9.318l.27-.145c.086-.047.17-.093.253-.142l.005.588 2.256-1.304a5.645 5.645 0 0 0 1.273-1.013l.62 1.14 1.166-1.635c1.26.09 3.608.564 5.714 2.654a89.98 89.98 0 0 1-.286 2.734m-4.356-7.073a9.04 9.04 0 0 0 .586-1.354 20.614 20.614 0 0 0 3.21-1.48l.25 2.118.948-.428.015-.008c-.013.264-.023.528-.038.792-1.062-.47-2.89-.882-4.972.36M54.2 48.66a19.412 19.412 0 0 1-1.93 2.024s.59-.018 1.24-.188c-.157.38-.317.762-.503 1.16-.488 1.046-1.732 1.975-3.527 2.734.64-3.638.944-8.25 1.09-12.052 1.72-1.17 2.842-2.535 3.57-3.774.18.348.36.76.52 1.253-.476 1.953-1.625 5.307-4.38 9.155 0 0 2.776-1.225 4.647-3.214a20.025 20.025 0 0 1-.726 2.903m2.46-12.687-2.5-2.83-.196 1.663c-.022.187-.567 4.35-5.177 6.907l-.3-2.54-1.06.8c-.02.015-1.1.81-3.008 1.61.046-.645 0-1.234-.116-1.753a4.07 4.07 0 0 0 2.012-1.737c.52-.892.702-1.94.566-3.188.777.253 1.516.388 2.21.388h.004c1.446 0 2.687-.543 3.687-1.61 1.7-1.817 2.443-4.956 2.74-7.94l.89 1.868c.02.038 1.727 3.715.247 8.363m-1.12-10.41c.187-1.99.177-3.903.124-5.29 1.037 1.374 2.343 3.684 2.705 6.91l-2.83-1.62"
    fill="#000000" />
</svg>